<svg xmlns="http://www.w3.org/2000/svg" width="215.09" height="97.268" viewBox="0.549 0 215.09 97.268" enable-background="new 0.549 0 215.09 97.268"><path fill="#A4ABB1" d="M215.64 31.792v-14.57h-11.993V0h-14.724v17.222h-29.658c-13.696.008-23.634 9.217-23.634 21.907 0 1.364.12 2.836.396 4.36-4.666-16.17-16.965-26.267-33.484-26.267-20.207 0-35.653 15.732-36.95 37.047v-4.53c0-17.93-14.59-32.517-32.522-32.517S.55 31.808.55 49.74v46.62h14.904V49.74c0-9.707 7.898-17.612 17.615-17.612 9.71 0 17.615 7.905 17.615 17.613v46.62H65.59V60.09c1.306 21.39 16.952 37.178 37.418 37.178 12.495 0 23.52-7.26 29.76-15.66 4.66 9.953 13.76 15.66 25.003 15.66 13.03 0 26.22-8.322 26.22-24.235 0-9.523-5.532-17.312-15.578-21.923-1.284-.587-2.322-1.076-3.314-1.548l-.136-.067c-1.124-.53-2.208-1.04-3.553-1.657-6.57-2.946-9.693-5.105-9.693-9.408 0-3.785 3.387-6.636 7.57-6.636h29.638V73.31c0 13.216 10.75 23.958 23.96 23.958V82.543c-5.092 0-9.236-4.143-9.236-9.235V31.793c5.887.002 10.426 0 11.99 0zm-113.212-.235c11.546 0 17.202 7.964 18.84 16.076H82.846c2.005-8.128 9.126-16.076 19.583-16.076zm58.85 33.84c4.15 1.774 6.626 5.112 6.626 8.916 0 5.04-3.876 8.04-10.368 8.04-6.893 0-10.095-6.068-10.912-7.923l-1.008-2.296H132.71l-.02-.012H120.73c-3.267 5.447-9.843 10.468-17.492 10.468-13.803 0-20.69-10.784-21.57-21.432h56.414v-2.335c0-4.415-.46-8.57-1.318-12.428 1.616 4.95 5.3 10.083 13.014 13.718 2.813 1.34 7.068 3.344 11.5 5.283z"/></svg>